<?xml version="1.0" encoding="UTF-8"?>
<svg width="50px" height="30px" viewBox="0 0 50 30" version="1.1" xmlns="http://www.w3.org/2000/svg" xmlns:xlink="http://www.w3.org/1999/xlink">
    <title>master-card</title>
    <g id="Symbols" stroke="none" stroke-width="1" fill="none" fill-rule="evenodd">
        <g id="footer" transform="translate(-608.000000, -360.000000)" fill-rule="nonzero">
            <g id="Group-3" transform="translate(440.000000, 360.000000)">
                <g id="Group-18" transform="translate(168.000000, 0.000000)">
                    <g id="mastercard-svgrepo-com" transform="translate(7.000000, 1.000000)">
                        <path d="M6.55107295,27.938053 L6.55107295,26.0796459 C6.55107295,25.3672566 6.11845493,24.9026547 5.37682403,24.9026547 C5.00600858,24.9026547 4.60429183,25.0265485 4.32618025,25.4292034 C4.10987124,25.0884955 3.80085836,24.9026547 3.33733905,24.9026547 C3.02832618,24.9026547 2.7193133,24.9955752 2.47210301,25.3362832 L2.47210301,24.9646017 L1.82317597,24.9646017 L1.82317597,27.938053 L2.47210301,27.938053 L2.47210301,26.2964601 C2.47210301,25.7699114 2.75021459,25.5221238 3.18283262,25.5221238 C3.61545064,25.5221238 3.83175965,25.8008848 3.83175965,26.2964601 L3.83175965,27.938053 L4.48068669,27.938053 L4.48068669,26.2964601 C4.48068669,25.7699114 4.78969956,25.5221238 5.1914163,25.5221238 C5.62403432,25.5221238 5.84034334,25.8008848 5.84034334,26.2964601 L5.84034334,27.938053 L6.55107295,27.938053 L6.55107295,27.938053 Z M16.1613734,24.9646017 L15.1107295,24.9646017 L15.1107295,24.0663716 L14.4618026,24.0663716 L14.4618026,24.9646017 L13.8746781,24.9646017 L13.8746781,25.5530972 L14.4618026,25.5530972 L14.4618026,26.9159291 C14.4618026,27.5973451 14.7399141,28 15.4815451,28 C15.7596566,28 16.0686695,27.9070795 16.2849785,27.7831857 L16.0995709,27.2256637 C15.9141631,27.3495574 15.6978541,27.3805309 15.5433476,27.3805309 C15.2343348,27.3805309 15.1107295,27.1946902 15.1107295,26.8849557 L15.1107295,25.5530972 L16.1613734,25.5530972 L16.1613734,24.9646017 L16.1613734,24.9646017 Z M21.6618025,24.9026547 C21.2909871,24.9026547 21.0437768,25.0884955 20.8892704,25.3362832 L20.8892704,24.9646017 L20.2403433,24.9646017 L20.2403433,27.938053 L20.8892704,27.938053 L20.8892704,26.2654866 C20.8892704,25.7699114 21.1055793,25.4911504 21.5072961,25.4911504 C21.6309012,25.4911504 21.7854077,25.5221238 21.9090128,25.5530972 L22.0944206,24.9336282 C21.9708155,24.9026547 21.7854077,24.9026547 21.6618025,24.9026547 L21.6618025,24.9026547 L21.6618025,24.9026547 Z M13.3493562,25.2123893 C13.0403433,24.9955752 12.6077253,24.9026547 12.144206,24.9026547 C11.4025751,24.9026547 10.9081545,25.2743362 10.9081545,25.8628318 C10.9081545,26.3584071 11.27897,26.6371681 11.9278969,26.7300885 L12.2369099,26.7610619 C12.576824,26.8230087 12.7622317,26.9159291 12.7622317,27.0707964 C12.7622317,27.2876105 12.5150214,27.4424778 12.0824034,27.4424778 C11.6497854,27.4424778 11.3098712,27.2876105 11.0935622,27.1327433 L10.7845493,27.6283186 C11.1244635,27.8761061 11.5879828,28 12.0515021,28 C12.9167382,28 13.4111588,27.5973451 13.4111588,27.0398229 C13.4111588,26.5132743 13.009442,26.2345133 12.3914163,26.1415928 L12.0824034,26.1106194 C11.8042918,26.0796459 11.5879828,26.017699 11.5879828,25.8318584 C11.5879828,25.6150442 11.8042918,25.4911504 12.144206,25.4911504 C12.5150214,25.4911504 12.8858369,25.6460176 13.0712446,25.738938 L13.3493562,25.2123893 L13.3493562,25.2123893 Z M30.5922746,24.9026547 C30.2214592,24.9026547 29.9742489,25.0884955 29.8197424,25.3362832 L29.8197424,24.9646017 L29.1708154,24.9646017 L29.1708154,27.938053 L29.8197424,27.938053 L29.8197424,26.2654866 C29.8197424,25.7699114 30.0360514,25.4911504 30.4377682,25.4911504 C30.5613733,25.4911504 30.7158798,25.5221238 30.8394849,25.5530972 L31.0248927,24.9336282 C30.9012876,24.9026547 30.7158798,24.9026547 30.5922746,24.9026547 L30.5922746,24.9026547 L30.5922746,24.9026547 Z M22.3107296,26.4513273 C22.3107296,27.3495574 22.9287553,28 23.8866953,28 C24.3193132,28 24.6283262,27.9070795 24.937339,27.6592919 L24.6283262,27.1327433 C24.3811159,27.318584 24.1339056,27.4115043 23.855794,27.4115043 C23.3304721,27.4115043 22.9596566,27.0398229 22.9596566,26.4513273 C22.9596566,25.8938052 23.3304721,25.5221238 23.855794,25.4911504 C24.1339056,25.4911504 24.3811159,25.5840707 24.6283262,25.7699114 L24.937339,25.2433628 C24.6283262,24.9955752 24.3193132,24.9026547 23.8866953,24.9026547 C22.9287553,24.9026547 22.3107296,25.5530972 22.3107296,26.4513273 L22.3107296,26.4513273 L22.3107296,26.4513273 Z M28.3055794,26.4513273 L28.3055794,24.9646017 L27.6566523,24.9646017 L27.6566523,25.3362832 C27.4403433,25.057522 27.1313304,24.9026547 26.7296137,24.9026547 C25.895279,24.9026547 25.2463519,25.5530972 25.2463519,26.4513273 C25.2463519,27.3495574 25.895279,28 26.7296137,28 C27.1622317,28 27.4712447,27.8451326 27.6566523,27.5663716 L27.6566523,27.938053 L28.3055794,27.938053 L28.3055794,26.4513273 Z M25.9261803,26.4513273 C25.9261803,25.9247786 26.2660944,25.4911504 26.8223176,25.4911504 C27.3476395,25.4911504 27.718455,25.8938052 27.718455,26.4513273 C27.718455,26.977876 27.3476395,27.4115043 26.8223176,27.4115043 C26.2660944,27.3805309 25.9261803,26.977876 25.9261803,26.4513273 L25.9261803,26.4513273 Z M18.169957,24.9026547 C17.304721,24.9026547 16.6866953,25.5221238 16.6866953,26.4513273 C16.6866953,27.3805309 17.304721,28 18.2008583,28 C18.6334764,28 19.0660943,27.8761061 19.4060085,27.5973451 L19.0969957,27.1327433 C18.8497854,27.318584 18.5407724,27.4424778 18.2317596,27.4424778 C17.8300429,27.4424778 17.4283261,27.2566372 17.3356223,26.7300885 L19.5296136,26.7300885 L19.5296136,26.4823008 C19.5605149,25.5221238 19.0042917,24.9026547 18.169957,24.9026547 L18.169957,24.9026547 L18.169957,24.9026547 Z M18.169957,25.4601769 C18.5716738,25.4601769 18.8497854,25.7079646 18.9115879,26.1725663 L17.3665236,26.1725663 C17.4283261,25.7699114 17.7064377,25.4601769 18.169957,25.4601769 L18.169957,25.4601769 Z M34.2695278,26.4513273 L34.2695278,23.7876106 L33.6206008,23.7876106 L33.6206008,25.3362832 C33.4042918,25.057522 33.0952789,24.9026547 32.6935622,24.9026547 C31.8592274,24.9026547 31.2103004,25.5530972 31.2103004,26.4513273 C31.2103004,27.3495574 31.8592274,28 32.6935622,28 C33.1261802,28 33.4351931,27.8451326 33.6206008,27.5663716 L33.6206008,27.938053 L34.2695278,27.938053 L34.2695278,26.4513273 Z M31.8901287,26.4513273 C31.8901287,25.9247786 32.2300428,25.4911504 32.7862661,25.4911504 C33.311588,25.4911504 33.6824034,25.8938052 33.6824034,26.4513273 C33.6824034,26.977876 33.311588,27.4115043 32.7862661,27.4115043 C32.2300428,27.3805309 31.8901287,26.977876 31.8901287,26.4513273 L31.8901287,26.4513273 Z M10.1974249,26.4513273 L10.1974249,24.9646017 L9.54849785,24.9646017 L9.54849785,25.3362832 C9.33218881,25.057522 9.02317595,24.9026547 8.62145919,24.9026547 C7.78712442,24.9026547 7.13819737,25.5530972 7.13819737,26.4513273 C7.13819737,27.3495574 7.78712442,28 8.62145919,28 C9.0540772,28 9.36309014,27.8451326 9.54849785,27.5663716 L9.54849785,27.938053 L10.1974249,27.938053 L10.1974249,26.4513273 Z M7.78712442,26.4513273 C7.78712442,25.9247786 8.12703861,25.4911504 8.68326176,25.4911504 C9.20858367,25.4911504 9.57939911,25.8938052 9.57939911,26.4513273 C9.57939911,26.977876 9.20858367,27.4115043 8.68326176,27.4115043 C8.12703861,27.3805309 7.78712442,26.977876 7.78712442,26.4513273 Z" id="Shape" fill="#FFFFFF"></path>
                        <rect id="Rectangle" fill="#FF5F00" x="13.1330502" y="2.38495884" width="9.73390553" height="17.5309729"></rect>
                        <path d="M13.7510729,11.1504425 C13.7510729,7.58849553 15.4197425,4.42920353 17.9845494,2.38495575 C16.0995707,0.898230086 13.7201716,0 11.1244635,0 C4.97510728,0 0,4.98672565 0,11.1504425 C0,17.3141592 4.97510728,22.3008849 11.1244635,22.3008849 C13.7201716,22.3008849 16.0995707,21.4026548 17.9845494,19.9159292 C15.4197425,17.9026548 13.7510729,14.7123894 13.7510729,11.1504425 Z" id="Path" fill="#EB001B"></path>
                        <path d="M36,11.1504425 C36,17.3141592 31.0248927,22.3008849 24.8755365,22.3008849 C22.2798283,22.3008849 19.900429,21.4026548 18.0154507,19.9159292 C20.6111587,17.8716814 22.248927,14.7123894 22.248927,11.1504425 C22.248927,7.58849553 20.5802574,4.42920353 18.0154507,2.38495575 C19.900429,0.898230086 22.2798283,0 24.8755365,0 C31.0248927,0 36,5.01769911 36,11.1504425 Z" id="Path" fill="#F79E1B"></path>
                    </g>
                </g>
            </g>
        </g>
    </g>
</svg>