<?xml version="1.0" encoding="UTF-8"?>
<svg width="85px" height="15.3612035px" viewBox="0 0 85 15.3612035" version="1.1" xmlns="http://www.w3.org/2000/svg" xmlns:xlink="http://www.w3.org/1999/xlink">
    <title>Souhoola logo</title>
    <defs>
        <polygon id="path-1" points="0 0 9.8330681 0 9.8330681 15.0059863 0 15.0059863"></polygon>
    </defs>
    <g id="Design" stroke="none" stroke-width="1" fill="none" fill-rule="evenodd">
        <g id="Checkout" transform="translate(-821, -1026)">
            <g id="Souhoola-logo" transform="translate(821, 1026)">
                <path d="M19.8308956,13.0661343 C20.3284622,13.4631325 20.3001003,14.2310279 19.7714315,14.5855518 C19.3001031,14.9017117 18.5924255,15.1682041 17.5637923,15.1222359 C13.1696141,14.9257577 11.7119215,11.2987213 11.8370153,9.34538023 C12.1515996,4.43280931 16.3174439,3.60606642 17.7171111,3.67436793 C18.3262071,3.70409998 21.6361245,3.86659867 22.9246733,7.43677425 C23.4367634,8.85582896 23.5427438,10.5163025 24.0315414,11.5625419 C24.7489471,13.0980586 25.8980841,13.7311321 27.1399796,13.7908017 C28.1854655,13.8410173 30.4601045,13.311732 30.9280761,10.6823635 C30.9280761,10.6823635 31.0032968,9.95694252 30.9606169,7.59865638 C30.9364339,6.25927535 31.0032968,4.41855985 31.0032968,4.41855985 C31.0032968,4.41855985 30.9447918,3.6409365 31.8138035,3.6409365 C32.5909473,3.6409365 32.5197685,4.46555567 32.5197685,4.46555567 L32.499833,9.29667173 C32.499833,9.29667173 33.1452377,14.7712744 27.5745197,15.3388551 C25.9709756,15.5023129 24.0380496,14.7815504 22.9062449,12.7657994 C22.4331353,11.9232999 22.1789057,11.0182535 21.9257722,9.48993007 C21.3353101,5.92496102 18.9955894,5.11164551 17.7365671,5.0939707 C17.0119682,5.08383165 13.1017922,5.44589133 13.2768277,9.83726073 C13.2957356,10.31222 13.6253914,12.4872498 16.1990637,13.5011539 C16.1990637,13.5011539 17.9907967,14.1220332 19.8308956,13.0661343 Z" id="Fill-1" fill="#00FC79"></path>
                <path d="M19.8308956,13.0661343 C19.8308956,13.0661343 20.3865562,12.7209958 20.662708,13.2778895 C21.0636112,14.0864095 19.3357268,14.8256689 19.3357268,14.8256689" id="Fill-3" fill="#00FC79"></path>
                <g id="Group-7">
                    <mask id="mask-2" fill="white">
                        <use xlink:href="#path-1"></use>
                    </mask>
                    <g id="Clip-6"></g>
                    <path d="M3.28016476,7.3071658 C2.74259006,7.10383692 2.26269828,6.8465245 1.84062644,6.53557107 C1.41821207,6.22468615 1.07656749,5.85228191 0.815555691,5.41849537 C0.55454389,4.98477733 0.42403799,4.47234472 0.42403799,3.880992 C0.42403799,3.28217201 0.55454389,2.74288464 0.815555691,2.26292436 C1.07656749,1.7832381 1.42026728,1.3761693 1.84638104,1.04219751 C2.27242628,0.70822572 2.75409924,0.451050314 3.29167394,0.270602785 C3.82897461,0.0902922712 4.37422209,0 4.92700535,0 C5.37216406,0 5.80608762,0.046036727 6.22836497,0.138178688 C6.65057383,0.230252142 7.04606494,0.366718154 7.41449577,0.546960162 C7.78306361,0.727476197 8.11710391,0.950055551 8.41654816,1.21490375 C8.7159924,1.47982045 8.9652895,1.78899269 9.16505601,2.14200944 C9.24952519,2.28018813 9.26870716,2.42042203 9.22260192,2.5623686 C9.17656519,2.7045207 9.11127799,2.81776283 9.02680882,2.90209499 C8.91925277,3.00197824 8.7792929,3.06157936 8.60658667,3.08062432 C8.43381193,3.09987479 8.26679178,3.04801497 8.10552622,2.92511335 C7.6602305,2.38007138 7.18431213,1.99807616 6.67749709,1.77926469 C6.17075056,1.56045323 5.59494894,1.45104749 4.95002372,1.45104749 C4.58906015,1.45104749 4.22830211,1.50283881 3.86740705,1.60648995 C3.50644349,1.7101411 3.1782948,1.86188418 2.88282396,2.06137666 C2.5872161,2.26114317 2.34538627,2.51256399 2.15726596,2.81577612 C1.96900863,3.11912527 1.87515399,3.47036083 1.87515399,3.86948282 C1.87515399,4.29182868 1.9862724,4.64313275 2.20905727,4.92325802 C2.43170514,5.2035888 2.7138171,5.43973255 3.0555987,5.63148374 C3.39703776,5.82350895 3.77136019,5.97901992 4.17842899,6.09794813 C4.58522376,6.21708187 4.97311059,6.3225827 5.34160992,6.41465615 C5.90973876,6.5914043 6.46444021,6.79089679 7.0057828,7.01354465 C7.54698837,7.23626102 8.02674313,7.50871349 8.44532111,7.8311761 C8.86369357,8.15370722 9.19958356,8.53762064 9.45299108,8.98284785 C9.70633009,9.42821208 9.8330681,9.96174487 9.8330681,10.5836517 C9.8330681,11.2515953 9.7005755,11.8561699 9.4356588,12.3975125 C9.1708106,12.9387865 8.81388895,13.4034013 8.36468833,13.7910141 C7.91555621,14.1787639 7.39332709,14.4782081 6.79848051,14.6892783 C6.2032914,14.9003485 5.57946635,15.0059863 4.92700535,15.0059863 C4.38175787,15.0059863 3.85589787,14.9329578 3.34928835,14.7871748 C2.84254182,14.6414604 2.37607742,14.4436806 1.94996367,14.1941094 C1.52391843,13.9446753 1.15137717,13.6490675 0.83288797,13.3072859 C0.514193247,12.9657098 0.270308205,12.5990602 0.101643887,12.207474 C-0.0135164379,11.9618077 -0.0308487175,11.7565607 0.0497840618,11.5913217 C0.130348334,11.4263568 0.247289842,11.3016054 0.400951119,11.2170678 C0.577562254,11.11739 0.744582403,11.0960843 0.901943061,11.1536988 C1.05923521,11.2113132 1.22241897,11.3476422 1.39142582,11.5625487 C1.53720879,11.8697343 1.73492009,12.1460917 1.98449122,12.3917579 C2.23392533,12.6375611 2.5161058,12.8466446 2.83096413,13.0193508 C3.14568545,13.1921256 3.48746704,13.3246182 3.85589787,13.4167601 C4.22446572,13.5088336 4.60454274,13.5548703 4.99612895,13.5548703 C5.40299223,13.5548703 5.80800581,13.4935565 6.2111012,13.3706549 C6.61419659,13.2478903 6.97700985,13.0636064 7.29933544,12.8178031 C7.62186656,12.5722054 7.88280985,12.2670066 8.08250786,11.9022751 C8.28206885,11.5376807 8.3819521,11.11739 8.3819521,10.6412661 C8.3819521,10.2035747 8.28206885,9.83706206 8.08250786,9.5413857 C7.88280985,9.24591487 7.61789315,8.99257585 7.28782626,8.78130016 C6.95769086,8.57022999 6.58542364,8.38971395 6.17075056,8.24002608 C5.75614599,8.09033821 5.33756801,7.94633643 4.91549617,7.80815774 C4.3626444,7.67765184 3.81739692,7.51070019 3.28016476,7.3071658" id="Fill-5" fill="#00FC79" mask="url(#mask-2)"></path>
                </g>
                <path d="M36.7694928,5.96551719 C37.2223928,5.38211128 37.7578438,4.91174198 38.3760512,4.55475183 C38.9939162,4.19776167 39.6561737,4.01923234 40.3626182,4.01923234 C41.0305618,4.01923234 41.6312315,4.14405216 42.1649698,4.39355478 C42.6985026,4.6431259 43.155376,4.99812935 43.535453,5.45883916 C43.91553,5.91948046 44.2071645,6.47623713 44.4106304,7.12869812 C44.6140277,7.78136464 44.7158292,8.51069052 44.7158292,9.31681279 L44.7158292,9.32832198 L44.7158292,14.1422428 C44.7158292,14.3495451 44.6467056,14.5222513 44.5085269,14.6604985 C44.3703482,14.7986772 44.1975735,14.8678008 43.9902712,14.8678008 C43.7905047,14.8678008 43.6218404,14.7986772 43.4835932,14.6604985 C43.3454145,14.5222513 43.2762909,14.3495451 43.2762909,14.1422428 L43.2762909,9.36284952 L43.2762909,9.32832198 C43.2762909,8.08457677 43.0074693,7.12869812 42.4701001,6.46068603 C41.9325939,5.79274245 41.1802497,5.45883916 40.2129303,5.45883916 C39.7444792,5.45883916 39.3048696,5.55091261 38.8942384,5.73519654 C38.4834018,5.91948046 38.1226437,6.17480618 37.8116903,6.50103667 C37.5007369,6.82740418 37.2530839,7.2132358 37.0688685,7.65846302 C36.8845846,8.10382725 36.7847698,8.58371902 36.7694928,9.09800133 L36.7694928,14.1192244 C36.7694928,14.3265267 36.6983825,14.5012881 36.5564359,14.6432347 C36.4142838,14.7853868 36.2434273,14.8562916 36.0439348,14.8562916 C35.8441683,14.8562916 35.6734487,14.7853868 35.5313651,14.6432347 C35.3892816,14.5012881 35.3183083,14.3265267 35.3183083,14.1192244 L35.3183083,0.852220656 C35.3183083,0.644849863 35.3892816,0.470362447 35.5313651,0.328141843 C35.6734487,0.186195268 35.8441683,0.115153474 36.0439348,0.115153474 C36.2512371,0.115153474 36.4239433,0.186195268 36.5621905,0.328141843 C36.7003692,0.470362447 36.7694928,0.644849863 36.7694928,0.852220656 L36.7694928,5.96551719 Z" id="Fill-8" fill="#00FC79"></path>
                <path d="M48.0727972,11.0730797 C48.2838674,11.5607127 48.5697472,11.986895 48.9307108,12.3514209 C49.2914688,12.7162209 49.7176511,13.0060742 50.2091205,13.2209122 C50.700316,13.4359558 51.2301494,13.5433748 51.7984152,13.5433748 C52.3664756,13.5433748 52.8961719,13.4359558 53.3876414,13.2209122 C53.8788368,13.0060742 54.3070058,12.7162209 54.6717373,12.3514209 C55.0363317,11.986895 55.3224856,11.5607127 55.5297879,11.0730797 C55.7369531,10.5856521 55.8406043,10.0654097 55.8406043,9.51262645 C55.8406043,8.95223891 55.7369531,8.4262419 55.5297879,7.93484094 C55.3224856,7.443577 55.0363317,7.01547655 54.6717373,6.65074509 C54.3070058,6.28615066 53.8788368,5.99821559 53.3876414,5.78700841 C52.8961719,5.57593823 52.3664756,5.47030039 51.7984152,5.47030039 C51.2378222,5.47030039 50.7118252,5.57593823 50.2206297,5.78700841 C49.7291603,5.99821559 49.3011283,6.28615066 48.9364654,6.65074509 C48.5718024,7.01547655 48.2838674,7.443577 48.0727972,7.93484094 C47.8615215,8.4262419 47.7560892,8.95223891 47.7560892,9.51262645 C47.7560892,10.0654097 47.8615215,10.5856521 48.0727972,11.0730797 M46.736773,7.36472541 C47.0247081,6.69301393 47.418144,6.10947102 47.9172862,5.61423367 C48.4162915,5.11906482 48.9998344,4.72747861 49.6678465,4.43961206 C50.3357215,4.15167699 51.0458655,4.00767521 51.7984152,4.00767521 C52.5584323,4.00767521 53.2704944,4.15167699 53.9346016,4.43961206 C54.5987088,4.72747861 55.1784838,5.11906482 55.6736526,5.61423367 C56.16889,6.10947102 56.5604762,6.69301393 56.8484113,7.36472541 C57.1362778,8.0367109 57.2802796,8.75254091 57.2802796,9.51262645 C57.2802796,10.2651762 57.1362778,10.9751831 56.8484113,11.6431952 C56.5604762,12.3111388 56.16889,12.892695 55.6736526,13.3879324 C55.1784838,13.8831012 54.5987088,14.2746874 53.9346016,14.562554 C53.2704944,14.850489 52.5584323,14.9944908 51.7984152,14.9944908 C51.0458655,14.9944908 50.3357215,14.850489 49.6678465,14.562554 C48.9998344,14.2746874 48.4162915,13.8831012 47.9172862,13.3879324 C47.418144,12.892695 47.0247081,12.3111388 46.736773,11.6431952 C46.448975,10.9751831 46.3050417,10.2651762 46.3050417,9.51262645 C46.3050417,8.75254091 46.448975,8.0367109 46.736773,7.36472541" id="Fill-10" fill="#00FC79"></path>
                <path d="M60.0497587,11.0730797 C60.2608288,11.5607127 60.5467087,11.986895 60.9076723,12.3514209 C61.2684303,12.7162209 61.6946126,13.0060742 62.186082,13.2209122 C62.6772775,13.4359558 63.2071109,13.5433748 63.7753767,13.5433748 C64.343437,13.5433748 64.8731334,13.4359558 65.3646029,13.2209122 C65.8557983,13.0060742 66.2839673,12.7162209 66.6486987,12.3514209 C67.0132932,11.986895 67.2994471,11.5607127 67.5067494,11.0730797 C67.7139146,10.5856521 67.8175658,10.0654097 67.8175658,9.51262645 C67.8175658,8.95223891 67.7139146,8.4262419 67.5067494,7.93484094 C67.2994471,7.443577 67.0132932,7.01547655 66.6486987,6.65074509 C66.2839673,6.28615066 65.8557983,5.99821559 65.3646029,5.78700841 C64.8731334,5.57593823 64.343437,5.47030039 63.7753767,5.47030039 C63.2147837,5.47030039 62.6887866,5.57593823 62.1975912,5.78700841 C61.7061217,5.99821559 61.2780898,6.28615066 60.9134269,6.65074509 C60.5487639,7.01547655 60.2608288,7.443577 60.0497587,7.93484094 C59.838483,8.4262419 59.7330507,8.95223891 59.7330507,9.51262645 C59.7330507,10.0654097 59.838483,10.5856521 60.0497587,11.0730797 M58.7137345,7.36472541 C59.0016696,6.69301393 59.3951055,6.10947102 59.8942477,5.61423367 C60.3932529,5.11906482 60.9767959,4.72747861 61.644808,4.43961206 C62.312683,4.15167699 63.0228269,4.00767521 63.7753767,4.00767521 C64.5353938,4.00767521 65.2474559,4.15167699 65.9116316,4.43961206 C66.5756703,4.72747861 67.1554453,5.11906482 67.6506141,5.61423367 C68.1458515,6.10947102 68.5374377,6.69301393 68.8253727,7.36472541 C69.1133078,8.0367109 69.2572411,8.75254091 69.2572411,9.51262645 C69.2572411,10.2651762 69.1133078,10.9751831 68.8253727,11.6431952 C68.5374377,12.3111388 68.1458515,12.892695 67.6506141,13.3879324 C67.1554453,13.8831012 66.5756703,14.2746874 65.9116316,14.562554 C65.2474559,14.850489 64.5353938,14.9944908 63.7753767,14.9944908 C63.0228269,14.9944908 62.312683,14.850489 61.644808,14.562554 C60.9767959,14.2746874 60.3932529,13.8831012 59.8942477,13.3879324 C59.3951055,12.892695 59.0016696,12.3111388 58.7137345,11.6431952 C58.4259364,10.9751831 58.2820032,10.2651762 58.2820032,9.51262645 C58.2820032,8.75254091 58.4259364,8.0367109 58.7137345,7.36472541" id="Fill-12" fill="#00FC79"></path>
                <path d="M72.3778941,14.1422565 C72.3778941,14.342023 72.3067838,14.5107558 72.1648372,14.6489345 C72.0226851,14.7871817 71.8518286,14.8563053 71.6523361,14.8563053 C71.4525696,14.8563053 71.28185,14.7871817 71.1397664,14.6489345 C70.9976829,14.5107558 70.9267096,14.342023 70.9267096,14.1422565 L70.9267096,0.829147486 C70.9267096,0.621845201 70.9976829,0.451057164 71.1397664,0.316646363 C71.28185,0.182441083 71.4525696,0.115167175 71.6523361,0.115167175 C71.8518286,0.115167175 72.0226851,0.182441083 72.1648372,0.316646363 C72.3067838,0.451057164 72.3778941,0.621845201 72.3778941,0.829147486 L72.3778941,14.1422565 Z" id="Fill-14" fill="#00FC79"></path>
                <path d="M75.4758096,9.5126059 C75.4758096,10.0653892 75.5813104,10.5856316 75.7925176,11.0730591 C76.0035878,11.5607607 76.2894676,11.9868745 76.6504312,12.3514689 C77.0112577,12.7162003 77.4373715,13.0060536 77.9288409,13.2209602 C78.4200364,13.4360038 78.9498698,13.5433543 79.5181356,13.5433543 C80.086196,13.5433543 80.6158923,13.4360038 81.1074303,13.2209602 C81.5986257,13.0060536 82.0247395,12.7162003 82.3857031,12.3514689 C82.7464611,11.9868745 83.0306968,11.5607607 83.2379991,11.0730591 C83.4451644,10.5856316 83.5488155,10.0653892 83.5488155,9.5126059 C83.5488155,8.95228687 83.4451644,8.42622135 83.2379991,7.93482039 C83.0306968,7.44362496 82.7464611,7.0155245 82.3857031,6.65072454 C82.0247395,6.28619861 81.5986257,5.99826355 81.1074303,5.78698785 C80.6158923,5.57598619 80.086196,5.47034834 79.5181356,5.47034834 C78.9575426,5.47034834 78.4316141,5.57598619 77.9403501,5.78698785 C77.4488807,5.99826355 77.0208487,6.28619861 76.6561858,6.65072454 C76.2915228,7.0155245 76.0035878,7.44362496 75.7925176,7.93482039 C75.5813104,8.42622135 75.4758096,8.95228687 75.4758096,9.5126059 M74.0247621,9.5126059 C74.0247621,8.75252035 74.1686953,8.03669035 74.4565619,7.36477336 C74.744497,6.69299338 75.1378644,6.10945046 75.6370751,5.61421311 C76.1360119,5.11904427 76.7195548,4.72745806 77.3875669,4.4395915 C78.0554419,4.15165644 78.7655859,4.00772316 79.5181356,4.00772316 C80.2704799,4.00772316 80.9767874,4.14987526 81.6371267,4.43383691 C82.297329,4.71800409 82.8751858,5.1037672 83.3703547,5.59119475 C83.865592,6.07889633 84.2571782,6.65271125 84.5451133,7.31291354 C84.8329799,7.97332135 84.9844489,8.67962887 85,9.43197312 L85,9.45499148 L85,9.5126059 L85,14.1077152 C85,14.3150175 84.9288897,14.4916971 84.7869431,14.6374801 C84.644791,14.7834001 84.4702351,14.8562916 84.2629328,14.8562916 C84.0556305,14.8562916 83.884637,14.7834001 83.7503632,14.6374801 C83.6160209,14.4916971 83.5488155,14.3150175 83.5488155,14.1077152 L83.5373063,13.117309 C83.0306968,13.6778336 82.4335895,14.1307336 81.7465324,14.4762146 C81.0593384,14.8216955 80.3165851,14.9944703 79.5181356,14.9944703 C78.7655859,14.9944703 78.0554419,14.850537 77.3875669,14.5626019 C76.7195548,14.2747354 76.1360119,13.8831492 75.6370751,13.3879118 C75.1378644,12.8926745 74.744497,12.3111182 74.4565619,11.6431747 C74.1686953,10.9751626 74.0247621,10.2651557 74.0247621,9.5126059" id="Fill-16" fill="#00FC79"></path>
            </g>
        </g>
    </g>
</svg>