<?xml version="1.0" encoding="UTF-8"?>
<svg width="50px" height="30px" viewBox="0 0 50 30" version="1.1" xmlns="http://www.w3.org/2000/svg" xmlns:xlink="http://www.w3.org/1999/xlink">
    <title>valu</title>
    <defs>
        <rect id="path-1" x="0" y="0" width="46" height="27.4042553"></rect>
    </defs>
    <g id="Symbols" stroke="none" stroke-width="1" fill="none" fill-rule="evenodd">
        <g id="footer" transform="translate(-950.000000, -360.000000)">
            <g id="Group-3" transform="translate(440.000000, 360.000000)">
                <g id="Group-23" transform="translate(510.000000, 0.000000)">
                    <g id="valu" transform="translate(2.000000, 1.000000)">
                        <mask id="mask-2" fill="white">
                            <use xlink:href="#path-1"></use>
                        </mask>
                        <g id="Rectangle"></g>
                        <path d="M11.2249854,6.07269271 L6.84061958,16.6733343 C6.83994308,16.675663 6.83842093,16.6786816 6.83689879,16.6810103 C6.83089478,16.6970524 6.82336862,16.7124046 6.81592703,16.7276704 C6.81440489,16.7314654 6.81212167,16.7352603 6.81059953,16.7383652 C6.80468008,16.7506124 6.79783043,16.7620834 6.79114991,16.7735543 C6.78438483,16.7858015 6.77761975,16.7980487 6.76941708,16.8095197 C6.75960771,16.8255618 6.74836076,16.8416902 6.73711381,16.8570423 C6.73339302,16.8623034 6.72958766,16.867737 6.72510579,16.8729981 C6.71614205,16.8853316 6.70633268,16.8968026 6.69736895,16.9074973 C6.69508573,16.9106022 6.69212601,16.9136209 6.68908172,16.9158633 C6.67935691,16.9273343 6.66887104,16.9388915 6.65762409,16.9503625 C6.65153551,16.9572623 6.64561606,16.9632997 6.63885098,16.968647 C6.62988724,16.9778756 6.62007787,16.9863279 6.61035307,16.9946939 C6.60578664,16.999265 6.6005437,17.0039224 6.59530076,17.0077173 C6.58405381,17.0176358 6.57204578,17.0267781 6.55936125,17.0360066 C6.55555589,17.0391116 6.5518351,17.041354 6.54802974,17.0436827 C6.53686735,17.052825 6.52477476,17.060501 6.51276674,17.0681771 C6.50380301,17.0743007 6.4940782,17.0803381 6.48426883,17.0857717 C6.47606617,17.091119 6.46701787,17.0964664 6.45805413,17.1011238 C6.44900583,17.1056087 6.4400421,17.1110423 6.43107836,17.1148372 C6.42050792,17.1201846 6.41002204,17.1255319 6.39877509,17.1301893 C6.39057243,17.1339842 6.38304627,17.1370892 6.37475905,17.1408841 C6.36579531,17.144679 6.35598594,17.1484739 6.3470222,17.1515788 C6.33349204,17.1561499 6.32004644,17.1614973 6.3057552,17.1653785 C6.29975119,17.1676209 6.2929861,17.1691734 6.28622102,17.1714158 C6.27125327,17.175297 6.25620096,17.1790919 6.24123322,17.182973 L6.23971107,17.182973 C6.22093797,17.1875442 6.20148835,17.1914253 6.18195418,17.194444 L6.17967096,17.194444 C6.15946027,17.1974627 6.13916502,17.1997914 6.11895434,17.2013438 C6.09865909,17.2028101 6.07768733,17.2035863 6.05739208,17.2035863 L6.05663101,17.2035863 C6.03642032,17.2035863 6.01544857,17.2028101 5.99515332,17.2013438 C5.97494263,17.1997914 5.95464738,17.1974627 5.9344367,17.194444 L5.93215348,17.194444 C5.9126193,17.1914253 5.89308512,17.1875442 5.87439658,17.182973 L5.87287444,17.182973 C5.85782213,17.1790919 5.84285438,17.175297 5.82788664,17.1714158 C5.82112155,17.1691734 5.81435647,17.1676209 5.80835246,17.1653785 C5.79482229,17.1614973 5.78061562,17.1569262 5.76708545,17.1515788 C5.75812172,17.1484739 5.74831235,17.144679 5.73934861,17.1408841 C5.73486674,17.1393316 5.73106138,17.1370892 5.72657952,17.1354505 C5.72285872,17.1339842 5.71905336,17.1324318 5.71533256,17.1301893 C5.70408561,17.1255319 5.69351517,17.1201846 5.68302929,17.1148372 C5.67406556,17.1110423 5.66501726,17.1056087 5.65605352,17.1011238 C5.64708979,17.0964664 5.63804149,17.091119 5.62975426,17.0857717 C5.62002946,17.0803381 5.61030465,17.0743007 5.60125635,17.0681771 C5.58924833,17.060501 5.5772403,17.052825 5.56599335,17.0436827 C5.56227256,17.041354 5.55855176,17.0391116 5.5547464,17.0360066 C5.54273838,17.0267781 5.52996929,17.0176358 5.51872234,17.0077173 C5.5134794,17.0039224 5.50899753,16.999265 5.50451566,16.9954701 C5.48946335,16.982533 5.47601775,16.9694233 5.46172651,16.9557099 C5.44895742,16.9426864 5.43551181,16.928973 5.42274272,16.9143971 C5.42122057,16.9120684 5.41893736,16.9097397 5.41749978,16.9074973 C5.4070139,16.8952501 5.39644346,16.8822267 5.38671865,16.8692032 C5.38299785,16.8654083 5.37995357,16.8608372 5.37699384,16.856266 C5.36718447,16.8431564 5.35822074,16.8302192 5.34917244,16.8164195 C5.34697379,16.8134008 5.34545164,16.8102959 5.34316843,16.807191 C5.33344362,16.7919251 5.32447989,16.7766592 5.31619266,16.7605309 C5.31399401,16.7575122 5.31247186,16.7551835 5.31171079,16.7521648 C5.30342356,16.737589 5.29589741,16.7230993 5.28921689,16.7077472 C5.28693367,16.7039523 5.28465046,16.6992949 5.28321288,16.69481 C5.27940752,16.6879102 5.27644779,16.6810103 5.27340351,16.6733343 L0.88912224,6.07269271 C0.706803248,5.63118978 0.909332926,5.12232725 1.34221368,4.93560057 C1.77509444,4.74973637 2.27401933,4.95630006 2.45633832,5.397803 L6.05739208,14.1039235 L9.65776934,5.397803 C9.84008833,4.95630006 10.3389286,4.74973637 10.771894,4.93560057 C11.2046902,5.12232725 11.4080655,5.63118978 11.2249854,6.07269271" id="Fill-1" fill="#009D90" mask="url(#mask-2)"></path>
                        <path d="M17.5433786,15.4888317 C15.1358546,15.4888317 13.1770248,13.4909856 13.1770248,11.0355945 C13.1770248,8.58011716 15.1358546,6.58227111 17.5433786,6.58227111 C19.950818,6.58227111 21.9096478,8.58011716 21.9096478,11.0355945 C21.9096478,13.4909856 19.950818,15.4888317 17.5433786,15.4888317 M23.6104743,10.9911769 C23.5872193,7.59844371 20.8750975,4.84687737 17.5433786,4.84687737 C14.1981295,4.84687737 11.4762829,7.62293811 11.4762829,11.0355945 C11.4762829,14.4474747 14.1981295,17.2234492 17.5433786,17.2234492 C19.2561285,17.2234492 20.8045715,16.4966382 21.9096478,15.3289281 L21.9096478,16.3565717 C21.9096478,16.8355062 22.2907757,17.2234492 22.7604416,17.2234492 C23.2301075,17.2234492 23.6112354,16.8355062 23.6112354,16.3565717 L23.6112354,11.0355945 C23.6112354,11.0202424 23.6112354,11.0057527 23.6104743,10.9911769" id="Fill-3" fill="#009D90" mask="url(#mask-2)"></path>
                        <path d="M29.1263595,17.8580353 C28.866834,17.8580353 28.610691,17.7374607 28.443678,17.5089038 L27.5458669,16.2805614 C25.7416192,13.8604457 24.7480822,10.8537581 24.7480822,7.81334757 L24.7480822,1.71579445 C24.7480822,1.23668743 25.1289564,0.84822695 25.5987069,0.84822695 C26.0685419,0.84822695 26.4494161,1.23668743 26.4494161,1.71579445 L26.4494161,7.81334757 C26.4494161,10.4777173 27.3205897,13.1127628 28.9022661,15.2331671 L28.9072553,15.2400669 L29.8076879,16.4718592 C30.0884389,16.8560073 30.0108095,17.3996277 29.6341635,17.6859707 C29.4814418,17.8020604 29.3030973,17.8580353 29.1263595,17.8580353" id="Fill-5" fill="#009D90" mask="url(#mask-2)"></path>
                        <path d="M42.7599977,7.33292959 L42.7599977,8.2511246 C42.7599977,11.4930964 40.1739601,14.1314193 36.9952167,14.1314193 C33.8164732,14.1314193 31.2297591,11.4930964 31.2297591,8.2511246 L31.2297591,7.33292959 C31.2297591,6.85390883 31.610887,6.4651896 32.0805529,6.4651896 C32.5502188,6.4651896 32.9312621,6.85390883 32.9312621,7.33292959 L32.9312621,8.2511246 C32.9312621,10.5366936 34.7542829,12.3960256 36.9952167,12.3960256 C39.2361505,12.3960256 41.0592558,10.5366936 41.0592558,8.2511246 L41.0592558,7.33292959 C41.0592558,6.85390883 41.4396226,6.4651896 41.909204,6.4651896 C42.3796309,6.4651896 42.7599977,6.85390883 42.7599977,7.33292959" id="Fill-7" fill="#EB8B2D" mask="url(#mask-2)"></path>
                        <path d="M44.1426623,8.2511246 C44.1426623,12.2705349 40.9361821,15.5408823 36.9952674,15.5408823 C33.0542682,15.5408823 29.8478725,12.2705349 29.8478725,8.2511246 L29.8478725,5.80254708 C29.8478725,4.54462165 30.8470753,3.52543037 32.0805191,3.52543037 C33.3138783,3.52543037 34.3139267,4.54462165 34.3139267,5.80254708 L34.3139267,8.2511246 C34.3139267,9.75925515 35.5165048,10.9858726 36.9952674,10.9858726 C38.4739455,10.9858726 39.6766081,9.75925515 39.6766081,8.2511246 L39.6766081,5.80254708 C39.6766081,4.54462165 40.6766566,3.52543037 41.9092547,3.52543037 C43.1426139,3.52543037 44.1426623,4.54462165 44.1426623,5.80254708 L44.1426623,8.2511246 Z M41.9092547,1.79003663 C39.7402845,1.79003663 37.9750206,3.59046127 37.9750206,5.80254708 L37.9750206,8.2511246 C37.9750206,8.80276609 37.5353748,9.25116885 36.9952674,9.25116885 C36.4543145,9.25116885 36.0147532,8.80276609 36.0147532,8.2511246 L36.0147532,5.80254708 C36.0147532,3.59046127 34.2501658,1.79003663 32.0805191,1.79003663 C29.9116334,1.79003663 28.1463695,3.59046127 28.1463695,5.80254708 L28.1463695,8.2511246 C28.1463695,13.2278002 32.1157821,17.276276 36.9952674,17.276276 C41.8739917,17.276276 45.8434043,13.2278002 45.8434043,8.2511246 L45.8434043,5.80254708 C45.8434043,3.59046127 44.0789014,1.79003663 41.9092547,1.79003663 L41.9092547,1.79003663 Z" id="Fill-9" fill="#EB8B2D" mask="url(#mask-2)"></path>
                        <path d="M42.7599977,7.33292959 L42.7599977,8.2511246 C42.7599977,11.4930964 40.1739601,14.1314193 36.9952167,14.1314193 C33.8164732,14.1314193 31.2297591,11.4930964 31.2297591,8.2511246 L31.2297591,7.33292959 C31.2297591,6.85390883 31.610887,6.4651896 32.0805529,6.4651896 C32.5502188,6.4651896 32.9312621,6.85390883 32.9312621,7.33292959 L32.9312621,8.2511246 C32.9312621,10.5366936 34.7542829,12.3960256 36.9952167,12.3960256 C39.2361505,12.3960256 41.0592558,10.5366936 41.0592558,8.2511246 L41.0592558,7.33292959 C41.0592558,6.85390883 41.4396226,6.4651896 41.909204,6.4651896 C42.3796309,6.4651896 42.7599977,6.85390883 42.7599977,7.33292959" id="Fill-11" fill="#EB8B2D" mask="url(#mask-2)"></path>
                        <path d="M8.89122622,23.6296576 C8.84835251,23.6384549 8.80311101,23.6427673 8.75550174,23.6427673 C8.65706978,23.6427673 8.58645923,23.6225853 8.54358551,23.582135 C8.5007118,23.5416848 8.47931722,23.4738939 8.47931722,23.3788488 L8.47931722,20.4063153 C8.50468628,20.3993293 8.53884995,20.3913082 8.5816391,20.3825972 C8.62451282,20.3737999 8.66975431,20.369315 8.71744815,20.369315 C8.80945328,20.369315 8.87769606,20.3887208 8.92217648,20.4274461 C8.9666569,20.4661714 8.98889711,20.5348247 8.98889711,20.6333198 L8.98889711,23.6005921 C8.9666569,23.6112006 8.93409994,23.6207741 8.89122622,23.6296576" id="Fill-13" fill="#FFFFFF" mask="url(#mask-2)"></path>
                        <path d="M11.8658587,20.7439758 C11.8902975,20.788911 11.9032357,20.8291887 11.9046733,20.8646366 C11.9061955,20.900257 11.8941029,20.9365673 11.8688184,20.9736539 C11.8497916,21.001512 11.827044,21.0241952 11.8004065,21.041531 C11.7738535,21.0588668 11.7473006,21.0736152 11.7205785,21.0856899 C11.6709397,21.0400648 11.616058,20.9899548 11.5560178,20.9351011 C11.4960623,20.88042 11.4345846,20.8237551 11.3715848,20.7651928 C11.3086695,20.7067167 11.2451623,20.6503106 11.1810631,20.5961469 C11.116964,20.5419833 11.0568393,20.491442 11.0006045,20.4446094 C11.006524,20.4144226 11.0157414,20.3820797 11.0281722,20.347753 C11.0405185,20.3135126 11.057854,20.2800484 11.0800942,20.247533 C11.1149344,20.1964742 11.1568779,20.163355 11.2059248,20.1480892 C11.2548871,20.1329958 11.3103608,20.1473129 11.3721767,20.1912993 C11.4117524,20.2194162 11.4556409,20.2575377 11.5037576,20.3054915 C11.5517897,20.3535316 11.5993144,20.4037279 11.6463317,20.4559079 C11.6932645,20.5083466 11.736561,20.560699 11.7761367,20.612879 C11.815797,20.6653177 11.845648,20.7089592 11.8658587,20.7439758" id="Fill-15" fill="#FFFFFF" mask="url(#mask-2)"></path>
                        <path d="M13.8177543,22.9300665 C13.8177543,23.1658682 13.7383491,23.3506975 13.5796233,23.4844679 C13.4208976,23.6182384 13.1907156,23.6850805 12.889162,23.6850805 C12.7652765,23.6850805 12.6510311,23.6745583 12.5462569,23.6534275 C12.4414827,23.6322968 12.3516762,23.602455 12.2771757,23.5636435 C12.2025061,23.5249182 12.1444955,23.4792068 12.1033131,23.4264231 C12.0620461,23.3735531 12.0414126,23.3155083 12.0414126,23.2521161 C12.0414126,23.1993324 12.053336,23.1500849 12.0771829,23.1043735 C12.1009453,23.0585759 12.1335023,23.0216618 12.1747693,22.9933725 C12.2636455,23.0567647 12.3652064,23.1148957 12.4795363,23.1676794 C12.5938662,23.2204631 12.7272229,23.246855 12.8796064,23.246855 C13.0224342,23.246855 13.1320285,23.2196007 13.2082203,23.165092 C13.284412,23.1104971 13.3224656,23.032184 13.3224656,22.9300665 C13.3224656,22.8420937 13.2962509,22.7716291 13.2439061,22.7188454 C13.1915613,22.6660617 13.1145239,22.6256977 13.0128785,22.5974947 L12.6890847,22.5023632 C12.4731094,22.4390573 12.3144682,22.3528956 12.2128229,22.2437058 C12.1111775,22.1346022 12.0604394,21.9849622 12.0604394,21.7948718 C12.0604394,21.6928406 12.0794662,21.5969329 12.1176043,21.5071489 C12.1557425,21.4173648 12.2120618,21.3399142 12.2866468,21.2748833 C12.3612319,21.2097661 12.4540826,21.1587074 12.5652837,21.1217071 C12.6763156,21.0847067 12.8034146,21.0662497 12.9462424,21.0662497 C13.0605723,21.0662497 13.1645009,21.0759957 13.2581973,21.0953152 C13.3518092,21.1146347 13.4327365,21.1411128 13.5010638,21.174577 C13.5693066,21.2079549 13.6224971,21.2493539 13.6606352,21.2986015 C13.6986888,21.3479353 13.7177156,21.400719 13.7177156,21.4570388 C13.7177156,21.5132725 13.7066378,21.5617438 13.6843976,21.602194 C13.6621574,21.6426443 13.6335749,21.675246 13.5986501,21.6998266 C13.5415698,21.6611876 13.4565834,21.6189261 13.3438602,21.5732147 C13.231137,21.5274171 13.1097038,21.5045614 12.9795605,21.5045614 C12.8462038,21.5045614 12.7414295,21.5300908 12.6653224,21.5810633 C12.589046,21.6321221 12.5509925,21.7033628 12.5509925,21.7948718 C12.5509925,21.8653363 12.572387,21.9233812 12.6152607,21.9690925 C12.6581345,22.0148902 12.7319584,22.0518905 12.8367327,22.0800073 L13.1129172,22.1591829 C13.354177,22.2296474 13.5320141,22.3246063 13.646344,22.4443184 C13.7605893,22.5640305 13.8177543,22.726004 13.8177543,22.9300665" id="Fill-17" fill="#FFFFFF" mask="url(#mask-2)"></path>
                        <path d="M16.3893907,20.860376 C16.3576794,20.9554211 16.3227546,21.062886 16.2846165,21.1824256 C16.2465629,21.3021376 16.206818,21.4279733 16.165551,21.5599326 C16.124284,21.6919781 16.0829324,21.8257486 16.04175,21.961244 C16.000483,22.0967394 15.9608227,22.2278362 15.9226845,22.3545344 L16.8608324,22.3545344 C16.8195654,22.2137778 16.7775374,22.0720725 16.7346636,21.9295048 C16.6917899,21.786937 16.6505229,21.6505791 16.6108626,21.5202585 C16.5711178,21.3901967 16.5338252,21.2678972 16.4989005,21.15336 C16.4638912,21.0389953 16.4353933,20.9412765 16.4132376,20.860376 L16.3893907,20.860376 Z M16.9704268,22.8086295 L15.8083546,22.8086295 L15.5750438,23.6164272 C15.5464613,23.6304856 15.5162722,23.6410078 15.4845608,23.6480802 C15.4527649,23.6551525 15.4147113,23.6586887 15.3702309,23.6586887 C15.2908258,23.6586887 15.2257964,23.6393691 15.1750583,23.6005576 C15.124151,23.5619185 15.098782,23.5037874 15.098782,23.4264231 C15.098782,23.3876978 15.1036021,23.349835 15.1130732,23.3129209 C15.1226289,23.2759205 15.1352289,23.2345215 15.1512114,23.1887239 C15.1923938,23.040895 15.2504044,22.8500285 15.325074,22.6158655 C15.3995745,22.3818749 15.4789796,22.1346022 15.5631204,21.8741336 C15.6471765,21.6135788 15.7322474,21.357595 15.8179103,21.1059237 C15.9036577,20.8542524 15.9782428,20.6386326 16.04175,20.4591508 C16.0734613,20.4380201 16.1226773,20.4177518 16.1893979,20.3984323 C16.256034,20.3791127 16.3242768,20.3693667 16.3942108,20.3693667 C16.486216,20.3693667 16.56875,20.3835114 16.6418129,20.411542 C16.7147912,20.439745 16.7640072,20.4889926 16.7893762,20.5594571 C16.8592257,20.7600697 16.935502,20.9879366 17.0180361,21.2431441 C17.1005701,21.4983516 17.1831041,21.7614939 17.2656381,22.0324847 C17.3481721,22.3035619 17.4275773,22.5692916 17.503769,22.8297602 C17.5799608,23.0902288 17.6482036,23.3260306 17.7085819,23.5372516 C17.6799994,23.5724408 17.6426224,23.6015063 17.5967044,23.624362 C17.5505327,23.6472177 17.4958201,23.6586887 17.4323128,23.6586887 C17.3465654,23.6586887 17.2846649,23.6401454 17.2466113,23.6032313 C17.2085577,23.5663172 17.1767618,23.5037874 17.1513928,23.4158146 L16.9704268,22.8086295 Z" id="Fill-19" fill="#FFFFFF" mask="url(#mask-2)"></path>
                        <path d="M19.1419931,21.5097622 C19.0403477,21.5097622 18.9498647,21.5283055 18.8705441,21.5652196 C18.791139,21.6021337 18.7228962,21.6452576 18.6658158,21.6945914 L18.6658158,23.099052 C18.7102117,23.1342411 18.7720276,23.1658941 18.8514328,23.1940109 C18.930838,23.222214 19.0229276,23.2363586 19.1277864,23.2363586 C19.3213524,23.2363586 19.4784714,23.1658941 19.5991436,23.0250513 C19.7198158,22.884381 19.7801096,22.6660876 19.7801096,22.3704298 C19.7801096,22.0713222 19.7205768,21.8529425 19.6015959,21.7157221 C19.4825305,21.5784155 19.3293013,21.5097622 19.1419931,21.5097622 M19.2229204,21.0661893 C19.3721751,21.0661893 19.5117895,21.0936161 19.6421019,21.1481248 C19.7721606,21.2027197 19.8849684,21.2837065 19.9801869,21.3909988 C20.0754055,21.4983775 20.1499905,21.6337866 20.2040266,21.7975714 C20.2578936,21.9611836 20.2849539,22.1522227 20.2849539,22.3704298 C20.2849539,22.5921732 20.2572171,22.7857997 20.2015743,22.9512231 C20.146016,23.1167328 20.0674565,23.2530045 19.9658957,23.3603831 C19.8642503,23.4677617 19.7428171,23.5487485 19.6015959,23.6031709 C19.4602903,23.6577658 19.3039323,23.6851064 19.1324374,23.6851064 C18.9610271,23.6851064 18.8094047,23.6621644 18.6776547,23.6164531 C18.5459047,23.5707417 18.4387627,23.517958 18.3562287,23.4580157 C18.2895081,23.4088544 18.2418988,23.3595206 18.2133163,23.3102731 C18.1847338,23.2610255 18.1705272,23.1975471 18.1705272,23.1201827 L18.1705272,20.1845634 C18.1926828,20.1775773 18.2244787,20.1686938 18.2657457,20.1581715 C18.3069282,20.147563 18.3514931,20.1423019 18.3991024,20.1423019 C18.4911075,20.1423019 18.5585893,20.1616214 18.601463,20.2003468 C18.6443367,20.2391583 18.6658158,20.3041892 18.6658158,20.3956982 L18.6658158,21.229974 C18.7355807,21.1877988 18.816508,21.149936 18.9085977,21.1163856 C19.000772,21.0830939 19.1054617,21.0661893 19.2229204,21.0661893" id="Fill-21" fill="#FFFFFF" mask="url(#mask-2)"></path>
                        <path d="M21.8374982,21.5097622 C21.6469766,21.5097622 21.4961998,21.5854878 21.3849987,21.7368529 C21.2738822,21.8882179 21.2184085,22.1010777 21.2184085,22.375691 C21.2184085,22.6503042 21.2723601,22.8623878 21.3803477,23.0119416 C21.4882508,23.1614955 21.6406343,23.2363586 21.8374982,23.2363586 C22.0342776,23.2363586 22.1866611,23.1614955 22.2946487,23.0119416 C22.4025518,22.8623878 22.4565879,22.6503042 22.4565879,22.375691 C22.4565879,22.1046139 22.4017907,21.8925303 22.2922809,21.7394403 C22.1827711,21.5863503 22.0311487,21.5097622 21.8374982,21.5097622 M22.9661678,22.375691 C22.9661678,22.5763035 22.9391074,22.7576829 22.8852405,22.9195701 C22.8312044,23.0814574 22.7557737,23.2186778 22.6589484,23.3313175 C22.5620386,23.4440435 22.4438188,23.5311539 22.3042044,23.5926486 C22.1644209,23.6542296 22.0089085,23.6851064 21.8374982,23.6851064 C21.6660879,23.6851064 21.5104064,23.6542296 21.370792,23.5926486 C21.2310085,23.5311539 21.1127887,23.4440435 21.0159634,23.3313175 C20.9191382,23.2186778 20.8437075,23.0814574 20.789756,22.9195701 C20.7357199,22.7576829 20.7087441,22.5763035 20.7087441,22.375691 C20.7087441,22.1750784 20.7357199,21.9937853 20.789756,21.8318118 C20.8437075,21.6699245 20.9198992,21.5327904 21.0183312,21.4199781 C21.1167632,21.3074246 21.2358286,21.2203143 21.3755276,21.1587333 C21.5152266,21.0971523 21.6691322,21.0661893 21.8374982,21.0661893 C22.0056951,21.0661893 22.1596853,21.0971523 22.2994688,21.1587333 C22.4390832,21.2203143 22.5581487,21.3082871 22.6565807,21.4226518 C22.7549281,21.5371028 22.8312044,21.6743231 22.8852405,21.8344855 C22.9391074,21.9946478 22.9661678,22.1750784 22.9661678,22.375691" id="Fill-23" fill="#FFFFFF" mask="url(#mask-2)"></path>
                        <path d="M23.5042033,21.145477 C23.5264435,21.1384909 23.5581548,21.1304698 23.5995064,21.1217588 C23.6406888,21.1129615 23.6852538,21.1084766 23.7327785,21.1084766 C23.8248682,21.1084766 23.8923499,21.1278824 23.9352237,21.1666077 C23.9780974,21.205333 23.9994074,21.2722614 23.9994074,21.3672203 L23.9994074,22.6712883 C23.9994074,22.8756096 24.0478623,23.0206785 24.1447721,23.1069264 C24.2415974,23.1931743 24.3757151,23.2362983 24.5471254,23.2362983 C24.6582419,23.2362983 24.7519383,23.2240511 24.8281301,23.1992979 C24.9044064,23.1747173 24.9647002,23.1483254 25.0091806,23.1202086 L25.0091806,21.145477 C25.0344651,21.1384909 25.0669375,21.1304698 25.1067669,21.1217588 C25.1464272,21.1129615 25.1901466,21.1084766 25.2377559,21.1084766 C25.329761,21.1084766 25.3980883,21.1278824 25.4424842,21.1666077 C25.4869646,21.205333 25.5092048,21.2722614 25.5092048,21.3672203 L25.5092048,23.1465142 C25.5092048,23.2240511 25.4980424,23.287357 25.4758022,23.3366045 C25.4536466,23.3860246 25.4091661,23.4334609 25.3425301,23.4792586 C25.2599115,23.531956 25.1512474,23.5795648 25.0162839,23.6217401 C24.8813205,23.6640015 24.7233558,23.685046 24.5423899,23.685046 C24.2152981,23.685046 23.9605927,23.6050942 23.77802,23.4448456 C23.5954474,23.2847696 23.5042033,23.0303383 23.5042033,22.6818968 L23.5042033,21.145477 Z" id="Fill-25" fill="#FFFFFF" mask="url(#mask-2)"></path>
                        <path d="M26.7663433,23.1570623 C26.8329794,23.2099323 26.9266758,23.2363241 27.0473479,23.2363241 C27.1012995,23.2363241 27.158549,23.2275268 27.2188428,23.2099323 C27.279052,23.1923377 27.3314814,23.171207 27.3759619,23.1465401 C27.3981175,23.1747431 27.4179899,23.2063961 27.4354946,23.241499 C27.4529147,23.2768606 27.4617093,23.3190359 27.4617093,23.3682834 C27.4617093,23.4598787 27.4195966,23.535518 27.3354559,23.5953741 C27.2512306,23.6551439 27.1236243,23.6850719 26.9521294,23.6850719 C26.7139985,23.6850719 26.5243225,23.6260783 26.3830168,23.5081775 C26.2417111,23.3903629 26.1711006,23.1958739 26.1711006,22.9247968 L26.1711006,20.4591422 C26.1932562,20.4520698 26.2250521,20.4432725 26.2664037,20.4326641 C26.3075015,20.4221418 26.3520665,20.4168807 26.3996758,20.4168807 C26.4917655,20.4168807 26.5592472,20.4362002 26.6021209,20.4749255 C26.6449101,20.5137371 26.6663046,20.578768 26.6663046,20.670277 L26.6663046,21.1930254 L27.4045443,21.1930254 C27.4171443,21.2141562 27.4290678,21.2439979 27.4402302,21.2828095 C27.4513925,21.3215348 27.4569737,21.361985 27.4569737,21.4042465 C27.4569737,21.5556115 27.3981175,21.6312509 27.2807433,21.6312509 L26.6663046,21.6312509 L26.6663046,22.8877964 C26.6663046,23.0145808 26.6997072,23.1043649 26.7663433,23.1570623" id="Fill-27" fill="#FFFFFF" mask="url(#mask-2)"></path>
                        <path d="M30.1094867,20.8708982 L30.1094867,23.6005576 C30.0872465,23.6111661 30.0548587,23.6208258 30.011985,23.6296231 C29.9690267,23.6384204 29.9237852,23.642819 29.8761759,23.642819 C29.7776594,23.642819 29.7078099,23.6225508 29.6666275,23.5821868 C29.6252759,23.5417365 29.604727,23.4739457 29.604727,23.3788143 L29.604727,20.8708982 L28.7617976,20.8708982 C28.7458997,20.8463176 28.7324541,20.8146646 28.7213762,20.775853 C28.7101293,20.737214 28.7046326,20.6932276 28.7046326,20.6438938 C28.7046326,20.5665294 28.7213762,20.5075358 28.7546943,20.4669131 C28.7880123,20.4266353 28.8331692,20.4062808 28.8904187,20.4062808 L30.9619718,20.4062808 C30.9745717,20.4274116 30.9865798,20.4573396 30.9976576,20.4959786 C31.00882,20.5348764 31.0144012,20.5771379 31.0144012,20.622763 C31.0144012,20.7882727 30.9525007,20.8708982 30.8286151,20.8708982 L30.1094867,20.8708982 Z" id="Fill-29" fill="#FFFFFF" mask="url(#mask-2)"></path>
                        <path d="M31.9645571,23.6006007 C31.9418334,23.6112092 31.9102103,23.6207827 31.8696878,23.6296662 C31.8291654,23.6383773 31.7828539,23.6427759 31.7310992,23.6427759 C31.6368348,23.6427759 31.5671949,23.6234564 31.5218339,23.5847311 C31.4763865,23.546092 31.4537492,23.4809749 31.4537492,23.3894659 L31.4537492,21.1559906 C31.4795834,21.1490045 31.5127617,21.1402072 31.553457,21.129685 C31.5939794,21.1190765 31.6402044,21.1138154 31.692132,21.1138154 C31.7862236,21.1138154 31.8550859,21.1332211 31.8988917,21.1719464 C31.9426974,21.2106717 31.9645571,21.2774276 31.9645571,21.372559 L31.9645571,23.6006007 Z M31.40018,20.3798459 C31.40018,20.2884231 31.4293839,20.211835 31.4877051,20.1501677 C31.5461128,20.088673 31.620764,20.0578825 31.7115724,20.0578825 C31.8022944,20.0578825 31.875304,20.088673 31.9304284,20.1501677 C31.9856392,20.211835 32.0132014,20.2884231 32.0132014,20.3798459 C32.0132014,20.4714411 31.9856392,20.5480292 31.9304284,20.609524 C31.875304,20.6711912 31.8022944,20.7019817 31.7115724,20.7019817 C31.620764,20.7019817 31.5461128,20.6711912 31.4877051,20.609524 C31.4293839,20.5480292 31.40018,20.4714411 31.40018,20.3798459 L31.40018,20.3798459 Z" id="Fill-31" fill="#FFFFFF" mask="url(#mask-2)"></path>
                        <path d="M35.2885976,21.6179946 C35.2107146,21.5459777 35.1052639,21.5097535 34.9719072,21.5097535 C34.8829463,21.5097535 34.7980445,21.5282968 34.7170327,21.5652109 C34.6361053,21.602125 34.5623659,21.6523213 34.4956453,21.7157135 C34.5019876,21.7439166 34.5067231,21.7738446 34.5099365,21.8054976 C34.5130654,21.8371505 34.5147567,21.8688035 34.5147567,21.9004565 L34.5147567,23.6005748 C34.4925165,23.6111833 34.460636,23.6208431 34.4195381,23.6296404 C34.378102,23.6384377 34.3353128,23.6428363 34.2908324,23.6428363 C34.1987427,23.6428363 34.1305845,23.6234305 34.0861041,23.5847915 C34.0416237,23.5460662 34.0193835,23.4810353 34.0193835,23.38944 L34.0193835,21.9585876 C34.0193835,21.8036863 33.9796386,21.6901841 33.900318,21.6179946 C33.8209974,21.5459777 33.7146165,21.5097535 33.5813443,21.5097535 C33.4923835,21.5097535 33.4082428,21.5256232 33.3289222,21.5573624 C33.249517,21.5890154 33.1827964,21.6242045 33.1288448,21.6629298 L33.1288448,23.6005748 C33.1066046,23.6111833 33.0756544,23.6208431 33.0359941,23.6296404 C32.9962492,23.6384377 32.952699,23.6428363 32.9050051,23.6428363 C32.8129154,23.6428363 32.7446727,23.6234305 32.7002768,23.5847915 C32.6557118,23.5460662 32.6335562,23.4810353 32.6335562,23.38944 L32.6335562,21.6470602 C32.6335562,21.5660734 32.6478474,21.5011288 32.6764299,21.4517087 C32.7050124,21.4024612 32.7527062,21.3532136 32.8193423,21.3037936 C32.9113474,21.2370377 33.0271994,21.1807179 33.166983,21.134834 C33.3066819,21.0892089 33.4479031,21.0662669 33.5908154,21.0662669 C33.7400701,21.0662669 33.8741879,21.0892089 33.9932533,21.134834 C34.1123188,21.1807179 34.2099051,21.2476462 34.2861814,21.3355328 C34.3749731,21.2581685 34.4805084,21.1939138 34.6028719,21.142855 C34.7249816,21.0917963 34.8671329,21.0662669 35.0290721,21.0662669 C35.1528731,21.0662669 35.2687252,21.0830853 35.3767128,21.1164632 C35.4845313,21.1499274 35.5774667,21.2027973 35.6552651,21.2748143 C35.7330636,21.3470038 35.7941185,21.4376503 35.8385989,21.5467539 C35.8829947,21.6558575 35.9053195,21.786178 35.9053195,21.9374568 L35.9053195,23.6005748 C35.8798659,23.6111833 35.8473089,23.6208431 35.8076486,23.6296404 C35.7679883,23.6384377 35.7243535,23.6428363 35.6767443,23.6428363 C35.58457,23.6428363 35.5163272,23.6234305 35.4719314,23.5847915 C35.4275355,23.5460662 35.4052953,23.4810353 35.4052953,23.38944 L35.4052953,21.9585876 C35.4052953,21.8036863 35.3663115,21.6901841 35.2885976,21.6179946" id="Fill-33" fill="#FFFFFF" mask="url(#mask-2)"></path>
                        <path d="M37.5387742,21.4939271 C37.3641505,21.4939271 37.2188703,21.5591305 37.1030183,21.6893648 C36.9870817,21.8195128 36.9260268,22.006067 36.9196845,22.2489411 L38.0911432,22.0641118 C38.0785433,21.9057607 38.0261139,21.7711278 37.9341088,21.6602992 C37.8419345,21.5493845 37.7101845,21.4939271 37.5387742,21.4939271 L37.5387742,21.4939271 Z M36.948267,22.6555136 C36.9926629,22.8561262 37.0791714,23.00499 37.2077925,23.1016739 C37.3363291,23.1985303 37.5007206,23.2468291 37.7007134,23.2468291 C37.8340701,23.2468291 37.9562644,23.2240597 38.0674655,23.1781758 C38.1784974,23.1324644 38.2673737,23.0832169 38.3340097,23.0303469 C38.422886,23.086753 38.4673664,23.1659286 38.4673664,23.2679599 C38.4673664,23.3279021 38.4467329,23.3832733 38.4055505,23.434332 C38.3641989,23.4853908 38.3079642,23.5293772 38.236508,23.5662913 C38.1649672,23.6032054 38.0808265,23.6322709 37.9840858,23.6534017 C37.887176,23.6745324 37.7832474,23.6850546 37.6721309,23.6850546 C37.487867,23.6850546 37.3204312,23.6568516 37.1696544,23.600618 C37.0189621,23.5442981 36.8894954,23.4598614 36.7815923,23.3471354 C36.6736046,23.2345819 36.590225,23.0955503 36.5316225,22.9300406 C36.4727662,22.7646172 36.4434227,22.5728881 36.4434227,22.3545947 C36.4434227,22.1433737 36.4720052,21.9577682 36.5292547,21.7976059 C36.5862505,21.6374435 36.664049,21.5036731 36.7624809,21.3962945 C36.8609129,21.2889158 36.9767649,21.2071528 37.1102062,21.1507467 C37.2434783,21.0945131 37.3863907,21.0662238 37.5387742,21.0662238 C37.6912423,21.0662238 37.830011,21.0935644 37.9555033,21.148073 C38.0808265,21.2027542 38.1888141,21.2783936 38.2793817,21.3751637 C38.3697801,21.4720201 38.439545,21.5872473 38.4888456,21.7210177 C38.537977,21.8547882 38.562585,22.0008059 38.562585,22.1592433 C38.562585,22.2472161 38.5436427,22.3114708 38.5055046,22.351921 C38.4673664,22.3924575 38.4118082,22.4197119 38.3389144,22.433684 L36.948267,22.6555136 Z" id="Fill-35" fill="#FFFFFF" mask="url(#mask-2)"></path>
                        <path d="M11.0126633,23.3681281 C11.0126633,23.4598959 10.9706352,23.5357078 10.886579,23.5953913 C10.8026074,23.6550749 10.6743246,23.6849166 10.5032525,23.6849166 C10.2654598,23.6849166 10.0756147,23.6260093 9.93380164,23.5081947 C9.79274966,23.3903801 9.72230823,23.1959774 9.72230823,22.9250728 L9.72230823,21.6311819 L9.44164184,21.6311819 L9.44164184,21.1927839 L9.72230823,21.1927839 L9.72230823,20.4589869 C9.74404106,20.4520871 9.77625977,20.4429448 9.81752678,20.4330263 C9.85879378,20.4222453 9.90302052,20.4168979 9.95105261,20.4168979 C10.0426349,20.4168979 10.1101166,20.436045 10.1529058,20.475029 C10.196456,20.5140131 10.2174278,20.5791302 10.2174278,20.670208 L10.2174278,21.1927839 L10.9556675,21.1927839 C10.9684365,21.2141734 10.9804446,21.2440152 10.991607,21.2830855 C11.0020928,21.3213795 11.0081814,21.3618298 11.0081814,21.404005 C11.0081814,21.5554563 10.9489024,21.6311819 10.8318664,21.6311819 L10.2174278,21.6311819 L10.2174278,22.8876412 C10.2174278,23.0145981 10.2511686,23.1041234 10.3172127,23.1569933 C10.3839334,23.209777 10.4777143,23.2366001 10.5985556,23.2366001 C10.6525917,23.2366001 10.7095876,23.2273716 10.7695431,23.209777 C10.8303443,23.1921825 10.8828582,23.1715692 10.927085,23.1462986 C10.9489024,23.1745879 10.9691131,23.2066721 10.986364,23.2418612 C11.0036995,23.2770504 11.0126633,23.3192256 11.0126633,23.3681281" id="Fill-37" fill="#FFFFFF" mask="url(#mask-2)"></path>
                    </g>
                </g>
            </g>
        </g>
    </g>
</svg>